<svg xmlns="http://www.w3.org/2000/svg" viewBox="0 0 250 250"><path fill="#3776AB" d="M125 250c69 0 125-56 125-125S194 0 125 0 0 56 0 125s56 125 125 125z"/><path fill="#FFD43B" d="M125 183.8c34.5 0 62.5-28 62.5-62.5h-43.8c0 10.4-8.4 18.8-18.8 18.8s-18.8-8.4-18.8-18.8v-50c0-10.4-8.4-18.8-18.8-18.8H62.5C62.5 155.8 90.5 183.8 125 183.8z"/><path fill="#FFF" d="M125 66.2c-34.5 0-62.5 28-62.5 62.5h43.8c0-10.4 8.4-18.8 18.8-18.8s18.8 8.4 18.8 18.8v50c0 10.4 8.4 18.8 18.8 18.8h25c0-34.5-28-62.5-62.5-62.5z"/><circle cx="106.2" cy="50" r="12.5" fill="#3776AB"/><circle cx="143.8" cy="200" r="12.5" fill="#FFD43B"/></svg>